<svg id="Layer_1" data-name="Layer 1" xmlns="http://www.w3.org/2000/svg" viewBox="0 0 16 15.92"><defs><style>.cls-1{fill:none;stroke:#000;stroke-miterlimit:10;}</style></defs><path d="M1,12.12V3.45A.5.5,0,0,1,1.5,3h8.67l1-1H1.5A1.5,1.5,0,0,0,0,3.45v9A1.55,1.55,0,0,0,.11,13Z" transform="translate(0 0)"/><path d="M15,3.78v8.67a.5.5,0,0,1-.5.5H5.83l-1,1H14.5a1.5,1.5,0,0,0,1.5-1.5v-9a1.55,1.55,0,0,0-.11-.56Z" transform="translate(0 0)"/><path d="M3.5,8.45H4.69l1-1H3.5a.5.5,0,1,0,0,1Z" transform="translate(0 0)"/><path d="M3.5,6H7.19l1-1H3.5a.5.5,0,1,0,0,1Z" transform="translate(0 0)"/><path d="M12.5,7.45H11.34l-1,1H12.5a.5.5,0,0,0,0-1Z" transform="translate(0 0)"/><path d="M9.5,10H8.84l-1,1H9.5a.5.5,0,0,0,0-1Z" transform="translate(0 0)"/><line class="cls-1" x1="0.39" y1="15.56" x2="15.6" y2="0.35"/></svg>